<mxfile host="app.diagrams.net" modified="2022-01-25T06:18:13.560Z" agent="5.0 (Windows NT 10.0; Win64; x64) AppleWebKit/537.36 (KHTML, like Gecko) Chrome/97.0.4692.99 Safari/537.36" etag="w7MsjsMmtz1U8SwtG_AV" version="16.4.6" type="github">
  <diagram id="GFQhR6zx6MaHapkgmxXj" name="第 1 页">
    <mxGraphModel dx="1422" dy="762" grid="1" gridSize="10" guides="1" tooltips="1" connect="1" arrows="1" fold="1" page="1" pageScale="1" pageWidth="827" pageHeight="1169" math="0" shadow="0">
      <root>
        <mxCell id="0" />
        <mxCell id="1" parent="0" />
        <mxCell id="wUhAtWJmyjRDmzeKrea8-5" value="" style="whiteSpace=wrap;html=1;aspect=fixed;rounded=0;sketch=0;fontColor=#095C86;strokeColor=#AF45ED;fillColor=#F694C1;" vertex="1" parent="1">
          <mxGeometry x="370" y="350" width="80" height="80" as="geometry" />
        </mxCell>
        <mxCell id="wUhAtWJmyjRDmzeKrea8-6" value="" style="shape=process;whiteSpace=wrap;html=1;backgroundOutline=1;rounded=0;sketch=0;fontColor=#095C86;strokeColor=#AF45ED;fillColor=#F694C1;" vertex="1" parent="1">
          <mxGeometry x="354" y="230" width="120" height="60" as="geometry" />
        </mxCell>
      </root>
    </mxGraphModel>
  </diagram>
</mxfile>
